<svg width="24" height="34" viewBox="0 0 24 34" fill="none" xmlns="http://www.w3.org/2000/svg">
<path d="M1.98153 12H0.294034L3.36648 3.27273H5.31818L8.39489 12H6.70739L4.37642 5.0625H4.30824L1.98153 12ZM2.03693 8.57812H6.6392V9.84801H2.03693V8.57812ZM12.1236 14.5909C11.5696 14.5909 11.0938 14.5156 10.696 14.3651C10.2983 14.2173 9.97869 14.0185 9.73722 13.7685C9.49574 13.5185 9.32812 13.2415 9.23438 12.9375L10.6236 12.6009C10.6861 12.7287 10.777 12.8551 10.8963 12.9801C11.0156 13.108 11.1761 13.2131 11.3778 13.2955C11.5824 13.3807 11.8395 13.4233 12.1491 13.4233C12.5866 13.4233 12.9489 13.3168 13.2358 13.1037C13.5227 12.8935 13.6662 12.5469 13.6662 12.0639V10.8239H13.5895C13.5099 10.983 13.3935 11.1463 13.2401 11.3139C13.0895 11.4815 12.8892 11.6222 12.6392 11.7358C12.392 11.8494 12.081 11.9062 11.706 11.9062C11.2031 11.9062 10.7472 11.7884 10.3381 11.5526C9.93182 11.3139 9.60795 10.9588 9.36648 10.4872C9.12784 10.0128 9.00852 9.41903 9.00852 8.70597C9.00852 7.98722 9.12784 7.38068 9.36648 6.88636C9.60795 6.3892 9.93324 6.01278 10.3423 5.7571C10.7514 5.49858 11.2074 5.36932 11.7102 5.36932C12.0938 5.36932 12.4091 5.43466 12.6562 5.56534C12.9062 5.69318 13.1051 5.84801 13.2528 6.02983C13.4006 6.20881 13.5128 6.37784 13.5895 6.53693H13.6747V5.45455H15.196V12.1065C15.196 12.6662 15.0625 13.1293 14.7955 13.4957C14.5284 13.8622 14.1634 14.1364 13.7003 14.3182C13.2372 14.5 12.7116 14.5909 12.1236 14.5909ZM12.1364 10.696C12.4631 10.696 12.7415 10.6165 12.9716 10.4574C13.2017 10.2983 13.3764 10.0696 13.4957 9.77131C13.6151 9.47301 13.6747 9.11506 13.6747 8.69744C13.6747 8.28551 13.6151 7.92472 13.4957 7.61506C13.3793 7.3054 13.206 7.06534 12.9759 6.89489C12.7486 6.72159 12.4688 6.63494 12.1364 6.63494C11.7926 6.63494 11.5057 6.72443 11.2756 6.90341C11.0455 7.08239 10.8722 7.32812 10.7557 7.64062C10.6392 7.95028 10.581 8.30256 10.581 8.69744C10.581 9.09801 10.6392 9.44886 10.7557 9.75C10.875 10.0483 11.0497 10.2812 11.2798 10.4489C11.5128 10.6136 11.7983 10.696 12.1364 10.696ZM19.6747 12.1278C19.0185 12.1278 18.4517 11.9915 17.9744 11.7188C17.5 11.4432 17.1349 11.054 16.8793 10.5511C16.6236 10.0455 16.4957 9.45028 16.4957 8.76562C16.4957 8.09233 16.6236 7.50142 16.8793 6.9929C17.1378 6.48153 17.4986 6.08381 17.9616 5.79972C18.4247 5.51278 18.9688 5.36932 19.5938 5.36932C19.9972 5.36932 20.3778 5.43466 20.7358 5.56534C21.0966 5.69318 21.4148 5.89205 21.6903 6.16193C21.9688 6.43182 22.1875 6.77557 22.3466 7.19318C22.5057 7.60795 22.5852 8.10227 22.5852 8.67614V9.14915H17.2202V8.10938H21.1065C21.1037 7.81392 21.0398 7.55114 20.9148 7.32102C20.7898 7.08807 20.6151 6.90483 20.3906 6.77131C20.169 6.63778 19.9105 6.57102 19.6151 6.57102C19.2997 6.57102 19.0227 6.64773 18.7841 6.80114C18.5455 6.9517 18.3594 7.15057 18.2259 7.39773C18.0952 7.64205 18.0284 7.91051 18.0256 8.20312V9.1108C18.0256 9.49148 18.0952 9.81818 18.2344 10.0909C18.3736 10.3608 18.5682 10.5682 18.8182 10.7131C19.0682 10.8551 19.3608 10.9261 19.696 10.9261C19.9205 10.9261 20.1236 10.8949 20.3054 10.8324C20.4872 10.767 20.6449 10.6719 20.7784 10.5469C20.9119 10.4219 21.0128 10.267 21.081 10.0824L22.5213 10.2443C22.4304 10.625 22.2571 10.9574 22.0014 11.2415C21.7486 11.5227 21.4247 11.7415 21.0298 11.8977C20.6349 12.0511 20.1832 12.1278 19.6747 12.1278Z" fill="#DB4646"/>
<path d="M3.80114 31.1193C3.44318 31.1136 3.08523 31.0455 2.72727 30.9148C2.36932 30.7841 2.04261 30.5639 1.74716 30.2543C1.4517 29.9418 1.21449 29.5199 1.03551 28.9886C0.856534 28.4545 0.767045 27.7841 0.767045 26.9773C0.767045 26.2045 0.839489 25.5199 0.984375 24.9233C1.12926 24.3239 1.33949 23.8196 1.61506 23.4105C1.89063 22.9986 2.22301 22.6861 2.61222 22.473C3.00426 22.2599 3.44602 22.1534 3.9375 22.1534C4.42614 22.1534 4.8608 22.2514 5.24148 22.4474C5.625 22.6406 5.9375 22.9105 6.17898 23.2571C6.42045 23.6037 6.5767 24.0028 6.64773 24.4545H5.60795C5.51136 24.0625 5.32386 23.7372 5.04545 23.4787C4.76705 23.2202 4.39773 23.0909 3.9375 23.0909C3.26136 23.0909 2.72869 23.3849 2.33949 23.973C1.95313 24.5611 1.75852 25.3864 1.75568 26.4489H1.82386C1.98295 26.2074 2.17188 26.0014 2.39062 25.831C2.61222 25.6577 2.85653 25.5241 3.12358 25.4304C3.39063 25.3366 3.6733 25.2898 3.97159 25.2898C4.47159 25.2898 4.92898 25.4148 5.34375 25.6648C5.75852 25.9119 6.09091 26.2543 6.34091 26.6918C6.59091 27.1264 6.71591 27.625 6.71591 28.1875C6.71591 28.7273 6.59517 29.2216 6.35369 29.6705C6.11222 30.1165 5.77273 30.4716 5.33523 30.7358C4.90057 30.9972 4.3892 31.125 3.80114 31.1193ZM3.80114 30.1818C4.15909 30.1818 4.48011 30.0923 4.7642 29.9134C5.05114 29.7344 5.27699 29.4943 5.44176 29.1932C5.60938 28.892 5.69318 28.5568 5.69318 28.1875C5.69318 27.8267 5.61222 27.4986 5.45028 27.2031C5.29119 26.9048 5.07102 26.6676 4.78977 26.4915C4.51136 26.3153 4.19318 26.2273 3.83523 26.2273C3.56534 26.2273 3.31392 26.2812 3.08097 26.3892C2.84801 26.4943 2.64347 26.6392 2.46733 26.8239C2.29403 27.0085 2.15767 27.2202 2.05824 27.4588C1.95881 27.6946 1.90909 27.9432 1.90909 28.2045C1.90909 28.5511 1.99006 28.875 2.15199 29.1761C2.31676 29.4773 2.54119 29.7202 2.82528 29.9048C3.11222 30.0895 3.4375 30.1818 3.80114 30.1818ZM11.119 31.1193C10.619 31.1193 10.1687 31.0199 9.76811 30.821C9.36754 30.6222 9.04652 30.3494 8.80504 30.0028C8.56357 29.6562 8.43146 29.2614 8.40874 28.8182H9.43146C9.47124 29.2131 9.65021 29.5398 9.96839 29.7983C10.2894 30.054 10.6729 30.1818 11.119 30.1818C11.4769 30.1818 11.7951 30.098 12.0735 29.9304C12.3548 29.7628 12.5749 29.5327 12.734 29.2401C12.896 28.9446 12.9769 28.6108 12.9769 28.2386C12.9769 27.858 12.8931 27.5185 12.7255 27.2202C12.5607 26.919 12.3335 26.6818 12.0437 26.5085C11.7539 26.3352 11.4229 26.2472 11.0508 26.2443C10.7837 26.2415 10.5096 26.2827 10.2283 26.3679C9.94709 26.4503 9.71555 26.5568 9.53374 26.6875L8.5451 26.5682L9.07351 22.2727H13.6076V23.2102H9.95987L9.65305 25.7841H9.70419C9.88317 25.642 10.1076 25.5241 10.3775 25.4304C10.6474 25.3366 10.9286 25.2898 11.2212 25.2898C11.7553 25.2898 12.2312 25.4176 12.6488 25.6733C13.0692 25.9261 13.3988 26.2727 13.6374 26.7131C13.8789 27.1534 13.9996 27.6562 13.9996 28.2216C13.9996 28.7784 13.8746 29.2756 13.6246 29.7131C13.3775 30.1477 13.0366 30.4915 12.6019 30.7443C12.1673 30.9943 11.6729 31.1193 11.119 31.1193Z" fill="#D9D9D9"/>
</svg>
