<svg width="75" height="34" viewBox="0 0 75 34" fill="none" xmlns="http://www.w3.org/2000/svg">
<path d="M3.81818 12H0.860795V3.27273H3.87784C4.74432 3.27273 5.48864 3.44744 6.1108 3.79688C6.7358 4.14347 7.21591 4.64205 7.55114 5.29261C7.88636 5.94318 8.05398 6.72159 8.05398 7.62784C8.05398 8.53693 7.88494 9.31818 7.54688 9.97159C7.21165 10.625 6.72727 11.1264 6.09375 11.4759C5.46307 11.8253 4.70455 12 3.81818 12ZM2.44176 10.6321H3.74148C4.34943 10.6321 4.85653 10.5213 5.26278 10.2997C5.66903 10.0753 5.97443 9.74148 6.17898 9.2983C6.38352 8.85227 6.4858 8.29545 6.4858 7.62784C6.4858 6.96023 6.38352 6.40625 6.17898 5.96591C5.97443 5.52273 5.67188 5.19176 5.27131 4.97301C4.87358 4.75142 4.37926 4.64062 3.78835 4.64062H2.44176V10.6321ZM11.3714 12.1321C10.9567 12.1321 10.5831 12.0582 10.2507 11.9105C9.92116 11.7599 9.6598 11.5384 9.46662 11.2457C9.27628 10.9531 9.18111 10.5923 9.18111 10.1634C9.18111 9.79403 9.24929 9.48864 9.38565 9.24716C9.52202 9.00568 9.7081 8.8125 9.94389 8.66761C10.1797 8.52273 10.4453 8.41335 10.7408 8.33949C11.0391 8.26278 11.3473 8.20739 11.6655 8.1733C12.049 8.13352 12.3601 8.09801 12.5987 8.06676C12.8374 8.03267 13.0107 7.98153 13.1186 7.91335C13.2294 7.84233 13.2848 7.73295 13.2848 7.58523V7.55966C13.2848 7.23864 13.1896 6.99006 12.9993 6.81392C12.8089 6.63778 12.5348 6.54972 12.1768 6.54972C11.799 6.54972 11.4993 6.6321 11.2777 6.79688C11.0589 6.96165 10.9112 7.15625 10.8345 7.38068L9.39418 7.17614C9.50781 6.77841 9.69531 6.44602 9.95668 6.17898C10.218 5.90909 10.5376 5.70739 10.9155 5.57386C11.2933 5.4375 11.7109 5.36932 12.1683 5.36932C12.4837 5.36932 12.7976 5.40625 13.1101 5.48011C13.4226 5.55398 13.7081 5.67614 13.9666 5.84659C14.2251 6.0142 14.4325 6.2429 14.5888 6.53267C14.7479 6.82244 14.8274 7.18466 14.8274 7.61932V12H13.3445V11.1009H13.2933C13.1996 11.2827 13.0675 11.4531 12.897 11.6122C12.7294 11.7685 12.5178 11.8949 12.2621 11.9915C12.0092 12.0852 11.7124 12.1321 11.3714 12.1321ZM11.772 10.9986C12.0817 10.9986 12.3501 10.9375 12.5774 10.8153C12.8047 10.6903 12.9794 10.5256 13.1016 10.321C13.2266 10.1165 13.2891 9.89347 13.2891 9.65199V8.88068C13.2408 8.92045 13.1584 8.95739 13.0419 8.99148C12.9283 9.02557 12.8004 9.0554 12.6584 9.08097C12.5163 9.10653 12.3757 9.12926 12.2365 9.14915C12.0973 9.16903 11.9766 9.18608 11.8743 9.20028C11.6442 9.23153 11.4382 9.28267 11.2564 9.35369C11.0746 9.42472 10.9311 9.52415 10.826 9.65199C10.7209 9.77699 10.6683 9.93892 10.6683 10.1378C10.6683 10.4219 10.772 10.6364 10.9794 10.7812C11.1868 10.9261 11.451 10.9986 11.772 10.9986ZM19.647 5.45455V6.64773H15.8842V5.45455H19.647ZM16.8132 3.88636H18.3558V10.0312C18.3558 10.2386 18.3871 10.3977 18.4496 10.5085C18.5149 10.6165 18.6001 10.6903 18.7053 10.7301C18.8104 10.7699 18.9268 10.7898 19.0547 10.7898C19.1513 10.7898 19.2393 10.7827 19.3189 10.7685C19.4013 10.7543 19.4638 10.7415 19.5064 10.7301L19.7663 11.9361C19.6839 11.9645 19.5661 11.9957 19.4126 12.0298C19.2621 12.0639 19.0774 12.0838 18.8587 12.0895C18.4723 12.1009 18.1243 12.0426 17.8146 11.9148C17.505 11.7841 17.2592 11.5824 17.0774 11.3097C16.8984 11.0369 16.8104 10.696 16.8132 10.2869V3.88636ZM23.7646 12.1278C23.1083 12.1278 22.5415 11.9915 22.0643 11.7188C21.5898 11.4432 21.2248 11.054 20.9691 10.5511C20.7134 10.0455 20.5856 9.45028 20.5856 8.76562C20.5856 8.09233 20.7134 7.50142 20.9691 6.9929C21.2276 6.48153 21.5884 6.08381 22.0515 5.79972C22.5146 5.51278 23.0586 5.36932 23.6836 5.36932C24.087 5.36932 24.4677 5.43466 24.8256 5.56534C25.1864 5.69318 25.5046 5.89205 25.7802 6.16193C26.0586 6.43182 26.2773 6.77557 26.4364 7.19318C26.5955 7.60795 26.6751 8.10227 26.6751 8.67614V9.14915H21.31V8.10938H25.1964C25.1935 7.81392 25.1296 7.55114 25.0046 7.32102C24.8796 7.08807 24.7049 6.90483 24.4805 6.77131C24.2589 6.63778 24.0004 6.57102 23.7049 6.57102C23.3896 6.57102 23.1126 6.64773 22.8739 6.80114C22.6353 6.9517 22.4492 7.15057 22.3157 7.39773C22.185 7.64205 22.1183 7.91051 22.1154 8.20312V9.1108C22.1154 9.49148 22.185 9.81818 22.3242 10.0909C22.4634 10.3608 22.658 10.5682 22.908 10.7131C23.158 10.8551 23.4506 10.9261 23.7859 10.9261C24.0103 10.9261 24.2134 10.8949 24.3952 10.8324C24.5771 10.767 24.7347 10.6719 24.8683 10.5469C25.0018 10.4219 25.1026 10.267 25.1708 10.0824L26.6112 10.2443C26.5202 10.625 26.3469 10.9574 26.0913 11.2415C25.8384 11.5227 25.5146 11.7415 25.1197 11.8977C24.7248 12.0511 24.2731 12.1278 23.7646 12.1278ZM33.8118 12.1278C33.1726 12.1278 32.6186 11.9872 32.1499 11.706C31.6811 11.4247 31.3175 11.0312 31.0589 10.5256C30.8033 10.0199 30.6754 9.42898 30.6754 8.75284C30.6754 8.0767 30.8033 7.48437 31.0589 6.97585C31.3175 6.46733 31.6811 6.07244 32.1499 5.79119C32.6186 5.50994 33.1726 5.36932 33.8118 5.36932C34.451 5.36932 35.005 5.50994 35.4737 5.79119C35.9425 6.07244 36.3047 6.46733 36.5604 6.97585C36.8189 7.48437 36.9482 8.0767 36.9482 8.75284C36.9482 9.42898 36.8189 10.0199 36.5604 10.5256C36.3047 11.0312 35.9425 11.4247 35.4737 11.706C35.005 11.9872 34.451 12.1278 33.8118 12.1278ZM33.8203 10.892C34.1669 10.892 34.4567 10.7969 34.6896 10.6065C34.9226 10.4134 35.0959 10.1548 35.2095 9.83097C35.326 9.5071 35.3842 9.14631 35.3842 8.74858C35.3842 8.34801 35.326 7.9858 35.2095 7.66193C35.0959 7.33523 34.9226 7.07528 34.6896 6.8821C34.4567 6.68892 34.1669 6.59233 33.8203 6.59233C33.4652 6.59233 33.1697 6.68892 32.9339 6.8821C32.701 7.07528 32.5263 7.33523 32.4098 7.66193C32.2962 7.9858 32.2393 8.34801 32.2393 8.74858C32.2393 9.14631 32.2962 9.5071 32.4098 9.83097C32.5263 10.1548 32.701 10.4134 32.9339 10.6065C33.1697 10.7969 33.4652 10.892 33.8203 10.892ZM41.5728 5.45455V6.64773H37.7035V5.45455H41.5728ZM38.6708 12V4.83665C38.6708 4.39631 38.7617 4.02983 38.9435 3.73722C39.1282 3.4446 39.3754 3.22585 39.685 3.08097C39.9947 2.93608 40.3384 2.86364 40.7163 2.86364C40.9833 2.86364 41.2205 2.88494 41.4279 2.92756C41.6353 2.97017 41.7887 3.00852 41.8881 3.04261L41.5813 4.2358C41.516 4.21591 41.4336 4.19602 41.3342 4.17614C41.2347 4.15341 41.1239 4.14205 41.0018 4.14205C40.7148 4.14205 40.5117 4.21165 40.3924 4.35085C40.2759 4.48722 40.2177 4.68324 40.2177 4.93892V12H38.6708ZM45.8256 12V3.27273H49.1665C49.7972 3.27273 50.3214 3.37216 50.739 3.57102C51.1594 3.76705 51.4734 4.03551 51.6808 4.37642C51.891 4.71733 51.9961 5.10369 51.9961 5.53551C51.9961 5.89062 51.9279 6.1946 51.7915 6.44744C51.6552 6.69744 51.4719 6.90057 51.2418 7.05682C51.0117 7.21307 50.7546 7.32528 50.4705 7.39347V7.47869C50.7802 7.49574 51.0771 7.59091 51.3612 7.7642C51.6481 7.93466 51.8825 8.17614 52.0643 8.48864C52.2461 8.80114 52.337 9.17898 52.337 9.62216C52.337 10.0739 52.2276 10.4801 52.0089 10.8409C51.7901 11.1989 51.4606 11.4815 51.0202 11.6889C50.5799 11.8963 50.0259 12 49.3583 12H45.8256ZM47.4066 10.679H49.1069C49.6808 10.679 50.0941 10.5696 50.3469 10.3509C50.6026 10.1293 50.7305 9.84517 50.7305 9.49858C50.7305 9.24006 50.6665 9.0071 50.5387 8.79972C50.4109 8.58949 50.229 8.42472 49.9933 8.3054C49.7575 8.18324 49.4762 8.12216 49.1495 8.12216H47.4066V10.679ZM47.4066 6.98438H48.9705C49.2433 6.98438 49.489 6.93466 49.7077 6.83523C49.9265 6.73295 50.0984 6.58949 50.2234 6.40483C50.3512 6.21733 50.4151 5.99574 50.4151 5.74006C50.4151 5.40199 50.2958 5.12358 50.0572 4.90483C49.8214 4.68608 49.4705 4.5767 49.0046 4.5767H47.4066V6.98438ZM53.6442 12V5.45455H55.1868V12H53.6442ZM54.4197 4.52557C54.1754 4.52557 53.9652 4.4446 53.7891 4.28267C53.6129 4.1179 53.5249 3.92045 53.5249 3.69034C53.5249 3.45739 53.6129 3.25994 53.7891 3.09801C53.9652 2.93324 54.1754 2.85085 54.4197 2.85085C54.6669 2.85085 54.8771 2.93324 55.0504 3.09801C55.2266 3.25994 55.3146 3.45739 55.3146 3.69034C55.3146 3.92045 55.2266 4.1179 55.0504 4.28267C54.8771 4.4446 54.6669 4.52557 54.4197 4.52557ZM56.7731 12V5.45455H58.2688V6.54545H58.337C58.4563 6.16761 58.6609 5.87642 58.9506 5.67188C59.2433 5.46449 59.5771 5.3608 59.9521 5.3608C60.0373 5.3608 60.1325 5.36506 60.2376 5.37358C60.3455 5.37926 60.435 5.3892 60.506 5.40341V6.82244C60.4407 6.79972 60.337 6.77983 60.195 6.76278C60.0558 6.7429 59.9208 6.73295 59.7901 6.73295C59.5089 6.73295 59.256 6.79403 59.0316 6.91619C58.81 7.03551 58.6353 7.2017 58.5075 7.41477C58.3796 7.62784 58.3157 7.87358 58.3157 8.15199V12H56.7731ZM65.1509 5.45455V6.64773H61.3881V5.45455H65.1509ZM62.3171 3.88636H63.8597V10.0312C63.8597 10.2386 63.891 10.3977 63.9535 10.5085C64.0188 10.6165 64.104 10.6903 64.2092 10.7301C64.3143 10.7699 64.4308 10.7898 64.5586 10.7898C64.6552 10.7898 64.7433 10.7827 64.8228 10.7685C64.9052 10.7543 64.9677 10.7415 65.0103 10.7301L65.2702 11.9361C65.1879 11.9645 65.07 11.9957 64.9165 12.0298C64.766 12.0639 64.5813 12.0838 64.3626 12.0895C63.9762 12.1009 63.6282 12.0426 63.3185 11.9148C63.0089 11.7841 62.7631 11.5824 62.5813 11.3097C62.4023 11.0369 62.3143 10.696 62.3171 10.2869V3.88636ZM68.1243 8.16477V12H66.5817V3.27273H68.0902V6.56676H68.1669C68.3203 6.19744 68.5575 5.90625 68.8786 5.69318C69.2024 5.47727 69.6143 5.36932 70.1143 5.36932C70.5689 5.36932 70.9652 5.46449 71.3033 5.65483C71.6413 5.84517 71.9027 6.12358 72.0874 6.49006C72.2749 6.85653 72.3686 7.30398 72.3686 7.83239V12H70.826V8.07102C70.826 7.63068 70.7124 7.28835 70.4851 7.04403C70.2607 6.79687 69.9453 6.6733 69.5391 6.6733C69.2663 6.6733 69.022 6.73295 68.8061 6.85227C68.593 6.96875 68.4254 7.13778 68.3033 7.35938C68.1839 7.58097 68.1243 7.84943 68.1243 8.16477Z" fill="#DB4646"/>
<path d="M3.75 31H1.05682V22.2727H3.86932C4.71591 22.2727 5.44034 22.4474 6.04261 22.7969C6.64489 23.1435 7.10653 23.642 7.42756 24.2926C7.74858 24.9403 7.90909 25.7159 7.90909 26.6193C7.90909 27.5284 7.74716 28.3111 7.4233 28.9673C7.09943 29.6207 6.62784 30.1236 6.00852 30.4759C5.3892 30.8253 4.63636 31 3.75 31ZM2.11364 30.0625H3.68182C4.40341 30.0625 5.00142 29.9233 5.47585 29.6449C5.95028 29.3665 6.30398 28.9702 6.53693 28.456C6.76989 27.9418 6.88636 27.3295 6.88636 26.6193C6.88636 25.9148 6.77131 25.3082 6.54119 24.7997C6.31108 24.2884 5.96733 23.8963 5.50994 23.6236C5.05256 23.348 4.48295 23.2102 3.80114 23.2102H2.11364V30.0625ZM12.2898 31.1364C11.6591 31.1364 11.1151 30.9972 10.6577 30.7188C10.2031 30.4375 9.85227 30.0455 9.60511 29.5426C9.3608 29.0369 9.23864 28.4489 9.23864 27.7784C9.23864 27.108 9.3608 26.517 9.60511 26.0057C9.85227 25.4915 10.196 25.0909 10.6364 24.804C11.0795 24.5142 11.5966 24.3693 12.1875 24.3693C12.5284 24.3693 12.8651 24.4261 13.1974 24.5398C13.5298 24.6534 13.8324 24.8381 14.1051 25.0938C14.3778 25.3466 14.5952 25.6818 14.7571 26.0994C14.919 26.517 15 27.0312 15 27.642V28.0682H9.95455V27.1989H13.9773C13.9773 26.8295 13.9034 26.5 13.7557 26.2102C13.6108 25.9205 13.4034 25.6918 13.1335 25.5241C12.8665 25.3565 12.5511 25.2727 12.1875 25.2727C11.7869 25.2727 11.4403 25.3722 11.1477 25.571C10.858 25.767 10.6349 26.0227 10.4787 26.3381C10.3224 26.6534 10.2443 26.9915 10.2443 27.3523V27.9318C10.2443 28.4261 10.3295 28.8452 10.5 29.1889C10.6733 29.5298 10.9134 29.7898 11.2202 29.9688C11.527 30.1449 11.8835 30.233 12.2898 30.233C12.554 30.233 12.7926 30.196 13.0057 30.1222C13.2216 30.0455 13.4077 29.9318 13.5639 29.7812C13.7202 29.6278 13.8409 29.4375 13.9261 29.2102L14.8977 29.483C14.7955 29.8125 14.6236 30.1023 14.3821 30.3523C14.1406 30.5994 13.8423 30.7926 13.4872 30.9318C13.1321 31.0682 12.733 31.1364 12.2898 31.1364ZM19.1889 31.1364C18.5753 31.1364 18.0469 30.9915 17.6037 30.7017C17.1605 30.4119 16.8196 30.0128 16.581 29.5043C16.3423 28.9957 16.223 28.4148 16.223 27.7614C16.223 27.0966 16.3452 26.5099 16.5895 26.0014C16.8366 25.4901 17.1804 25.0909 17.6207 24.804C18.0639 24.5142 18.581 24.3693 19.1719 24.3693C19.6321 24.3693 20.0469 24.4545 20.4162 24.625C20.7855 24.7955 21.0881 25.0341 21.3239 25.3409C21.5597 25.6477 21.706 26.0057 21.7628 26.4148H20.7571C20.6804 26.1165 20.5099 25.8523 20.2457 25.6222C19.9844 25.3892 19.6321 25.2727 19.1889 25.2727C18.7969 25.2727 18.4531 25.375 18.1577 25.5795C17.8651 25.7812 17.6364 26.0668 17.4716 26.4361C17.3097 26.8026 17.2287 27.233 17.2287 27.7273C17.2287 28.233 17.3082 28.6733 17.4673 29.0483C17.6293 29.4233 17.8565 29.7145 18.1491 29.9219C18.4446 30.1293 18.7912 30.233 19.1889 30.233C19.4503 30.233 19.6875 30.1875 19.9006 30.0966C20.1136 30.0057 20.294 29.875 20.4418 29.7045C20.5895 29.5341 20.6946 29.3295 20.7571 29.0909H21.7628C21.706 29.4773 21.5653 29.8253 21.3409 30.1349C21.1193 30.4418 20.8253 30.6861 20.4588 30.8679C20.0952 31.0469 19.6719 31.1364 19.1889 31.1364ZM29.6591 22.2727V31H28.6023V23.3807H28.5511L26.4205 24.7955V23.7216L28.6023 22.2727H29.6591ZM34.9645 31.1193C34.3793 31.1193 33.8622 31.0156 33.4134 30.8082C32.9673 30.598 32.6193 30.3097 32.3693 29.9432C32.1193 29.5739 31.9957 29.1534 31.9986 28.6818C31.9957 28.3125 32.0682 27.9716 32.2159 27.6591C32.3636 27.3437 32.5653 27.081 32.821 26.8707C33.0795 26.6577 33.3679 26.5227 33.6861 26.4659V26.4148C33.2685 26.3068 32.9361 26.0724 32.6889 25.7116C32.4418 25.348 32.3196 24.9347 32.3224 24.4716C32.3196 24.0284 32.4318 23.6321 32.6591 23.2827C32.8864 22.9332 33.1989 22.6577 33.5966 22.456C33.9972 22.2543 34.4531 22.1534 34.9645 22.1534C35.4702 22.1534 35.9219 22.2543 36.3196 22.456C36.7173 22.6577 37.0298 22.9332 37.2571 23.2827C37.4872 23.6321 37.6037 24.0284 37.6065 24.4716C37.6037 24.9347 37.4773 25.348 37.2273 25.7116C36.9801 26.0724 36.652 26.3068 36.2429 26.4148V26.4659C36.5582 26.5227 36.8423 26.6577 37.0952 26.8707C37.348 27.081 37.5497 27.3437 37.7003 27.6591C37.8509 27.9716 37.9276 28.3125 37.9304 28.6818C37.9276 29.1534 37.7997 29.5739 37.5469 29.9432C37.2969 30.3097 36.9489 30.598 36.5028 30.8082C36.0597 31.0156 35.5469 31.1193 34.9645 31.1193ZM34.9645 30.1818C35.3594 30.1818 35.7003 30.1179 35.9872 29.9901C36.2741 29.8622 36.4957 29.6818 36.652 29.4489C36.8082 29.2159 36.8878 28.9432 36.8906 28.6307C36.8878 28.3011 36.8026 28.0099 36.6349 27.7571C36.4673 27.5043 36.2386 27.3054 35.9489 27.1605C35.6619 27.0156 35.3338 26.9432 34.9645 26.9432C34.5923 26.9432 34.2599 27.0156 33.9673 27.1605C33.6776 27.3054 33.4489 27.5043 33.2812 27.7571C33.1165 28.0099 33.0355 28.3011 33.0384 28.6307C33.0355 28.9432 33.1108 29.2159 33.2642 29.4489C33.4205 29.6818 33.6435 29.8622 33.9332 29.9901C34.223 30.1179 34.5668 30.1818 34.9645 30.1818ZM34.9645 26.0398C35.277 26.0398 35.554 25.9773 35.7955 25.8523C36.0398 25.7273 36.2315 25.5526 36.3707 25.3281C36.5099 25.1037 36.581 24.8409 36.5838 24.5398C36.581 24.2443 36.5114 23.9872 36.375 23.7685C36.2386 23.5469 36.0497 23.3764 35.8082 23.2571C35.5668 23.1349 35.2855 23.0739 34.9645 23.0739C34.6378 23.0739 34.3523 23.1349 34.108 23.2571C33.8636 23.3764 33.6747 23.5469 33.5412 23.7685C33.4077 23.9872 33.3423 24.2443 33.3452 24.5398C33.3423 24.8409 33.4091 25.1037 33.5455 25.3281C33.6847 25.5526 33.8764 25.7273 34.1207 25.8523C34.3651 25.9773 34.6463 26.0398 34.9645 26.0398ZM40.8111 29.8068L40.7429 30.267C40.6946 30.5909 40.6207 30.9375 40.5213 31.3068C40.4247 31.6761 40.3239 32.0241 40.2188 32.3509C40.1136 32.6776 40.027 32.9375 39.9588 33.1307H39.1918C39.2287 32.9489 39.277 32.7088 39.3366 32.4105C39.3963 32.1122 39.456 31.7784 39.5156 31.4091C39.5781 31.0426 39.6293 30.6676 39.669 30.2841L39.7202 29.8068H40.8111ZM46.0323 31V30.233L48.913 27.0795C49.2511 26.7102 49.5295 26.3892 49.7482 26.1165C49.967 25.8409 50.1289 25.5824 50.234 25.3409C50.342 25.0966 50.396 24.8409 50.396 24.5739C50.396 24.267 50.3221 24.0014 50.1744 23.777C50.0295 23.5526 49.8306 23.3793 49.5778 23.2571C49.3249 23.1349 49.0408 23.0739 48.7255 23.0739C48.3903 23.0739 48.0977 23.1435 47.8477 23.2827C47.6005 23.419 47.4087 23.6108 47.2724 23.858C47.1388 24.1051 47.0721 24.3949 47.0721 24.7273H46.0664C46.0664 24.2159 46.1843 23.767 46.4201 23.3807C46.6559 22.9943 46.9769 22.6932 47.3832 22.4773C47.7923 22.2614 48.2511 22.1534 48.7596 22.1534C49.271 22.1534 49.7241 22.2614 50.119 22.4773C50.5138 22.6932 50.8235 22.9844 51.0479 23.3509C51.2724 23.7173 51.3846 24.125 51.3846 24.5739C51.3846 24.8949 51.3263 25.2088 51.2099 25.5156C51.0962 25.8196 50.8974 26.1591 50.6133 26.5341C50.332 26.9062 49.9414 27.3608 49.4414 27.8977L47.4812 29.9943V30.0625H51.538V31H46.0323ZM56.1445 31.1193C55.5025 31.1193 54.9556 30.9446 54.5039 30.5952C54.0522 30.2429 53.707 29.733 53.4684 29.0653C53.2298 28.3949 53.1104 27.5852 53.1104 26.6364C53.1104 25.6932 53.2298 24.8878 53.4684 24.2202C53.7099 23.5497 54.0565 23.0384 54.5082 22.6861C54.9627 22.331 55.5082 22.1534 56.1445 22.1534C56.7809 22.1534 57.3249 22.331 57.7766 22.6861C58.2312 23.0384 58.5778 23.5497 58.8164 24.2202C59.0579 24.8878 59.1786 25.6932 59.1786 26.6364C59.1786 27.5852 59.0593 28.3949 58.8207 29.0653C58.582 29.733 58.2369 30.2429 57.7852 30.5952C57.3335 30.9446 56.7866 31.1193 56.1445 31.1193ZM56.1445 30.1818C56.7809 30.1818 57.2752 29.875 57.6275 29.2614C57.9798 28.6477 58.1559 27.7727 58.1559 26.6364C58.1559 25.8807 58.0749 25.2372 57.913 24.706C57.7539 24.1747 57.5238 23.7699 57.2227 23.4915C56.9244 23.2131 56.565 23.0739 56.1445 23.0739C55.5138 23.0739 55.021 23.3849 54.6658 24.0071C54.3107 24.6264 54.1332 25.5028 54.1332 26.6364C54.1332 27.392 54.2127 28.0341 54.3718 28.5625C54.5309 29.0909 54.7596 29.4929 55.0579 29.7685C55.359 30.044 55.7212 30.1818 56.1445 30.1818ZM60.7979 31V30.233L63.6786 27.0795C64.0167 26.7102 64.2951 26.3892 64.5138 26.1165C64.7326 25.8409 64.8945 25.5824 64.9996 25.3409C65.1076 25.0966 65.1616 24.8409 65.1616 24.5739C65.1616 24.267 65.0877 24.0014 64.94 23.777C64.7951 23.5526 64.5962 23.3793 64.3434 23.2571C64.0906 23.1349 63.8065 23.0739 63.4911 23.0739C63.1559 23.0739 62.8633 23.1435 62.6133 23.2827C62.3661 23.419 62.1744 23.6108 62.038 23.858C61.9045 24.1051 61.8377 24.3949 61.8377 24.7273H60.832C60.832 24.2159 60.9499 23.767 61.1857 23.3807C61.4215 22.9943 61.7425 22.6932 62.1488 22.4773C62.5579 22.2614 63.0167 22.1534 63.5252 22.1534C64.0366 22.1534 64.4897 22.2614 64.8846 22.4773C65.2795 22.6932 65.5891 22.9844 65.8136 23.3509C66.038 23.7173 66.1502 24.125 66.1502 24.5739C66.1502 24.8949 66.092 25.2088 65.9755 25.5156C65.8619 25.8196 65.663 26.1591 65.3789 26.5341C65.0977 26.9062 64.707 27.3608 64.207 27.8977L62.2468 29.9943V30.0625H66.3036V31H60.7979ZM70.9102 31.1193C70.2681 31.1193 69.7212 30.9446 69.2695 30.5952C68.8178 30.2429 68.4727 29.733 68.234 29.0653C67.9954 28.3949 67.8761 27.5852 67.8761 26.6364C67.8761 25.6932 67.9954 24.8878 68.234 24.2202C68.4755 23.5497 68.8221 23.0384 69.2738 22.6861C69.7283 22.331 70.2738 22.1534 70.9102 22.1534C71.5465 22.1534 72.0906 22.331 72.5423 22.6861C72.9968 23.0384 73.3434 23.5497 73.582 24.2202C73.8235 24.8878 73.9442 25.6932 73.9442 26.6364C73.9442 27.5852 73.8249 28.3949 73.5863 29.0653C73.3477 29.733 73.0025 30.2429 72.5508 30.5952C72.0991 30.9446 71.5522 31.1193 70.9102 31.1193ZM70.9102 30.1818C71.5465 30.1818 72.0408 29.875 72.3931 29.2614C72.7454 28.6477 72.9215 27.7727 72.9215 26.6364C72.9215 25.8807 72.8406 25.2372 72.6786 24.706C72.5195 24.1747 72.2894 23.7699 71.9883 23.4915C71.69 23.2131 71.3306 23.0739 70.9102 23.0739C70.2795 23.0739 69.7866 23.3849 69.4315 24.0071C69.0763 24.6264 68.8988 25.5028 68.8988 26.6364C68.8988 27.392 68.9783 28.0341 69.1374 28.5625C69.2965 29.0909 69.5252 29.4929 69.8235 29.7685C70.1246 30.044 70.4869 30.1818 70.9102 30.1818Z" fill="black"/>
</svg>
