<svg width="372" height="44" viewBox="0 0 372 44" fill="none" xmlns="http://www.w3.org/2000/svg">
<path d="M6.92512 18.432C5.78379 18.432 4.90912 18.7893 4.30112 19.504C3.70379 20.208 3.40512 21.1893 3.40512 22.448C3.40512 23.0453 3.47446 23.5947 3.61312 24.096C3.76246 24.5867 3.97579 25.008 4.25312 25.36C4.54112 25.712 4.89312 25.9893 5.30912 26.192C5.73579 26.384 6.23179 26.48 6.79712 26.48C7.14912 26.48 7.45312 26.4693 7.70912 26.448C7.96512 26.416 8.16779 26.3787 8.31712 26.336V22.352H10.3331V27.68C10.0558 27.7867 9.58646 27.904 8.92512 28.032C8.26379 28.16 7.50112 28.224 6.63712 28.224C5.83712 28.224 5.10646 28.096 4.44512 27.84C3.78379 27.584 3.21846 27.2107 2.74912 26.72C2.29046 26.2293 1.93312 25.6267 1.67712 24.912C1.42112 24.1973 1.29312 23.376 1.29312 22.448C1.29312 21.52 1.43179 20.6987 1.70912 19.984C1.99712 19.2693 2.38646 18.6667 2.87712 18.176C3.36779 17.6747 3.94379 17.296 4.60512 17.04C5.26646 16.784 5.97046 16.656 6.71712 16.656C7.22912 16.656 7.68246 16.6933 8.07712 16.768C8.48246 16.832 8.82912 16.9067 9.11712 16.992C9.40512 17.0773 9.63979 17.168 9.82112 17.264C10.0131 17.36 10.1465 17.4293 10.2211 17.472L9.61312 19.12C9.29312 18.928 8.89312 18.768 8.41312 18.64C7.94379 18.5013 7.44779 18.432 6.92512 18.432ZM11.943 23.856C11.943 23.12 12.0497 22.4747 12.263 21.92C12.487 21.3653 12.7803 20.9067 13.143 20.544C13.5057 20.1707 13.9217 19.8933 14.391 19.712C14.8603 19.52 15.3403 19.424 15.831 19.424C16.983 19.424 17.879 19.7813 18.519 20.496C19.1697 21.2107 19.495 22.2773 19.495 23.696C19.495 23.8027 19.4897 23.9253 19.479 24.064C19.479 24.192 19.4737 24.3093 19.463 24.416H13.943C13.9963 25.088 14.231 25.6107 14.647 25.984C15.0737 26.3467 15.687 26.528 16.487 26.528C16.9563 26.528 17.383 26.4853 17.767 26.4C18.1617 26.3147 18.471 26.224 18.695 26.128L18.951 27.712C18.8443 27.7653 18.695 27.824 18.503 27.888C18.3217 27.9413 18.1083 27.9893 17.863 28.032C17.6283 28.0853 17.3723 28.128 17.095 28.16C16.8177 28.192 16.535 28.208 16.247 28.208C15.511 28.208 14.871 28.1013 14.327 27.888C13.783 27.664 13.335 27.36 12.983 26.976C12.631 26.5813 12.3697 26.1227 12.199 25.6C12.0283 25.0667 11.943 24.4853 11.943 23.856ZM17.559 22.992C17.559 22.7253 17.5217 22.4747 17.447 22.24C17.3723 21.9947 17.2603 21.7867 17.111 21.616C16.9723 21.4347 16.7963 21.296 16.583 21.2C16.3803 21.0933 16.135 21.04 15.847 21.04C15.5483 21.04 15.287 21.0987 15.063 21.216C14.839 21.3227 14.647 21.4667 14.487 21.648C14.3377 21.8293 14.2203 22.0373 14.135 22.272C14.0497 22.5067 13.991 22.7467 13.959 22.992H17.559ZM21.3876 19.904C21.761 19.7973 22.2463 19.696 22.8436 19.6C23.441 19.504 24.1023 19.456 24.8276 19.456C25.5103 19.456 26.081 19.552 26.5396 19.744C26.9983 19.9253 27.361 20.1867 27.6276 20.528C27.905 20.8587 28.097 21.264 28.2036 21.744C28.321 22.2133 28.3796 22.7307 28.3796 23.296V28H26.4436V23.6C26.4436 23.152 26.4116 22.7733 26.3476 22.464C26.2943 22.144 26.1983 21.888 26.0596 21.696C25.9316 21.4933 25.7503 21.3493 25.5156 21.264C25.2916 21.168 25.0143 21.12 24.6836 21.12C24.4383 21.12 24.1823 21.136 23.9156 21.168C23.649 21.2 23.4516 21.2267 23.3236 21.248V28H21.3876V19.904ZM32.107 23.792C32.107 24.6453 32.3097 25.3173 32.715 25.808C33.1203 26.288 33.6803 26.528 34.395 26.528C34.7043 26.528 34.9657 26.5173 35.179 26.496C35.403 26.464 35.5843 26.432 35.723 26.4V21.6C35.5523 21.4827 35.323 21.376 35.035 21.28C34.7577 21.1733 34.459 21.12 34.139 21.12C33.435 21.12 32.9177 21.36 32.587 21.84C32.267 22.32 32.107 22.9707 32.107 23.792ZM37.659 27.744C37.275 27.8613 36.7897 27.968 36.203 28.064C35.627 28.16 35.019 28.208 34.379 28.208C33.7177 28.208 33.1257 28.1067 32.603 27.904C32.0803 27.7013 31.6323 27.4133 31.259 27.04C30.8963 26.656 30.6137 26.1973 30.411 25.664C30.219 25.12 30.123 24.512 30.123 23.84C30.123 23.1787 30.203 22.5813 30.363 22.048C30.5337 21.504 30.779 21.04 31.099 20.656C31.419 20.272 31.8083 19.9787 32.267 19.776C32.7257 19.5627 33.2537 19.456 33.851 19.456C34.2563 19.456 34.6137 19.504 34.923 19.6C35.2323 19.696 35.499 19.8027 35.723 19.92V15.904L37.659 15.584V27.744ZM39.4942 23.856C39.4942 23.12 39.6009 22.4747 39.8142 21.92C40.0382 21.3653 40.3316 20.9067 40.6942 20.544C41.0569 20.1707 41.4729 19.8933 41.9422 19.712C42.4116 19.52 42.8916 19.424 43.3822 19.424C44.5342 19.424 45.4303 19.7813 46.0703 20.496C46.7209 21.2107 47.0463 22.2773 47.0463 23.696C47.0463 23.8027 47.0409 23.9253 47.0303 24.064C47.0303 24.192 47.0249 24.3093 47.0142 24.416H41.4942C41.5476 25.088 41.7822 25.6107 42.1982 25.984C42.6249 26.3467 43.2382 26.528 44.0382 26.528C44.5076 26.528 44.9343 26.4853 45.3183 26.4C45.7129 26.3147 46.0223 26.224 46.2463 26.128L46.5023 27.712C46.3956 27.7653 46.2462 27.824 46.0543 27.888C45.8729 27.9413 45.6596 27.9893 45.4142 28.032C45.1796 28.0853 44.9236 28.128 44.6462 28.16C44.3689 28.192 44.0862 28.208 43.7982 28.208C43.0622 28.208 42.4222 28.1013 41.8782 27.888C41.3342 27.664 40.8862 27.36 40.5342 26.976C40.1822 26.5813 39.9209 26.1227 39.7502 25.6C39.5796 25.0667 39.4942 24.4853 39.4942 23.856ZM45.1102 22.992C45.1102 22.7253 45.0729 22.4747 44.9983 22.24C44.9236 21.9947 44.8116 21.7867 44.6623 21.616C44.5236 21.4347 44.3476 21.296 44.1343 21.2C43.9316 21.0933 43.6862 21.04 43.3983 21.04C43.0996 21.04 42.8382 21.0987 42.6142 21.216C42.3902 21.3227 42.1982 21.4667 42.0382 21.648C41.8889 21.8293 41.7716 22.0373 41.6862 22.272C41.6009 22.5067 41.5422 22.7467 41.5102 22.992H45.1102ZM53.7069 21.376C53.5469 21.3227 53.3229 21.2693 53.0349 21.216C52.7575 21.152 52.4322 21.12 52.0589 21.12C51.8455 21.12 51.6162 21.1413 51.3709 21.184C51.1362 21.2267 50.9709 21.264 50.8749 21.296V28H48.9389V20.032C49.3122 19.8933 49.7762 19.7653 50.3309 19.648C50.8962 19.52 51.5202 19.456 52.2029 19.456C52.3309 19.456 52.4802 19.4667 52.6509 19.488C52.8215 19.4987 52.9922 19.52 53.1629 19.552C53.3335 19.5733 53.4989 19.6053 53.6589 19.648C53.8189 19.68 53.9469 19.712 54.0429 19.744L53.7069 21.376Z" fill="#161E44"/>
<rect x="72.5" y="0.5" width="299" height="43" rx="6.5" fill="white"/>
<path d="M94.144 28.24C93.3653 28.24 92.656 28.112 92.016 27.856C91.376 27.6 90.8267 27.2267 90.368 26.736C89.9093 26.2453 89.552 25.6427 89.296 24.928C89.0507 24.2027 88.928 23.376 88.928 22.448C88.928 21.52 89.0667 20.6987 89.344 19.984C89.632 19.2587 90.016 18.6507 90.496 18.16C90.976 17.6693 91.536 17.296 92.176 17.04C92.816 16.784 93.4987 16.656 94.224 16.656C94.6827 16.656 95.0933 16.688 95.456 16.752C95.8293 16.816 96.1493 16.8907 96.416 16.976C96.6933 17.0613 96.9173 17.1467 97.088 17.232C97.2587 17.3173 97.376 17.3813 97.44 17.424L96.992 18.704C96.896 18.64 96.7573 18.5707 96.576 18.496C96.3947 18.4213 96.1867 18.3467 95.952 18.272C95.728 18.1973 95.4773 18.1387 95.2 18.096C94.9333 18.0427 94.6613 18.016 94.384 18.016C93.7973 18.016 93.2693 18.1173 92.8 18.32C92.3307 18.5227 91.9307 18.816 91.6 19.2C91.2693 19.584 91.0133 20.0533 90.832 20.608C90.6613 21.152 90.576 21.7653 90.576 22.448C90.576 23.1093 90.6507 23.712 90.8 24.256C90.96 24.8 91.1947 25.2693 91.504 25.664C91.8133 26.048 92.1973 26.3467 92.656 26.56C93.1253 26.7733 93.6693 26.88 94.288 26.88C95.0027 26.88 95.5947 26.8053 96.064 26.656C96.5333 26.5067 96.8853 26.3733 97.12 26.256L97.52 27.536C97.4453 27.5893 97.312 27.6587 97.12 27.744C96.928 27.8187 96.688 27.8933 96.4 27.968C96.112 28.0427 95.776 28.1067 95.392 28.16C95.008 28.2133 94.592 28.24 94.144 28.24ZM99.0419 28V15.84L100.53 15.584V19.84C100.807 19.7333 101.101 19.6533 101.41 19.6C101.73 19.536 102.045 19.504 102.354 19.504C103.015 19.504 103.565 19.6 104.002 19.792C104.439 19.9733 104.786 20.2347 105.042 20.576C105.309 20.9067 105.495 21.3067 105.602 21.776C105.709 22.2453 105.762 22.7627 105.762 23.328V28H104.274V23.648C104.274 23.136 104.237 22.6987 104.162 22.336C104.098 21.9733 103.986 21.68 103.826 21.456C103.666 21.232 103.453 21.072 103.186 20.976C102.919 20.8693 102.589 20.816 102.194 20.816C102.034 20.816 101.869 20.8267 101.698 20.848C101.527 20.8693 101.362 20.896 101.202 20.928C101.053 20.9493 100.914 20.976 100.786 21.008C100.669 21.04 100.583 21.0667 100.53 21.088V28H99.0419ZM115.367 23.84C115.367 24.5013 115.271 25.0987 115.079 25.632C114.887 26.1653 114.615 26.624 114.263 27.008C113.921 27.392 113.511 27.6907 113.031 27.904C112.551 28.1067 112.028 28.208 111.463 28.208C110.897 28.208 110.375 28.1067 109.895 27.904C109.415 27.6907 108.999 27.392 108.647 27.008C108.305 26.624 108.039 26.1653 107.847 25.632C107.655 25.0987 107.559 24.5013 107.559 23.84C107.559 23.1893 107.655 22.5973 107.847 22.064C108.039 21.52 108.305 21.056 108.647 20.672C108.999 20.288 109.415 19.9947 109.895 19.792C110.375 19.5787 110.897 19.472 111.463 19.472C112.028 19.472 112.551 19.5787 113.031 19.792C113.511 19.9947 113.921 20.288 114.263 20.672C114.615 21.056 114.887 21.52 115.079 22.064C115.271 22.5973 115.367 23.1893 115.367 23.84ZM113.815 23.84C113.815 22.9013 113.601 22.16 113.175 21.616C112.759 21.0613 112.188 20.784 111.463 20.784C110.737 20.784 110.161 21.0613 109.735 21.616C109.319 22.16 109.111 22.9013 109.111 23.84C109.111 24.7787 109.319 25.5253 109.735 26.08C110.161 26.624 110.737 26.896 111.463 26.896C112.188 26.896 112.759 26.624 113.175 26.08C113.601 25.5253 113.815 24.7787 113.815 23.84ZM124.644 23.84C124.644 24.5013 124.548 25.0987 124.356 25.632C124.164 26.1653 123.892 26.624 123.54 27.008C123.199 27.392 122.788 27.6907 122.308 27.904C121.828 28.1067 121.305 28.208 120.74 28.208C120.175 28.208 119.652 28.1067 119.172 27.904C118.692 27.6907 118.276 27.392 117.924 27.008C117.583 26.624 117.316 26.1653 117.124 25.632C116.932 25.0987 116.836 24.5013 116.836 23.84C116.836 23.1893 116.932 22.5973 117.124 22.064C117.316 21.52 117.583 21.056 117.924 20.672C118.276 20.288 118.692 19.9947 119.172 19.792C119.652 19.5787 120.175 19.472 120.74 19.472C121.305 19.472 121.828 19.5787 122.308 19.792C122.788 19.9947 123.199 20.288 123.54 20.672C123.892 21.056 124.164 21.52 124.356 22.064C124.548 22.5973 124.644 23.1893 124.644 23.84ZM123.092 23.84C123.092 22.9013 122.879 22.16 122.452 21.616C122.036 21.0613 121.465 20.784 120.74 20.784C120.015 20.784 119.439 21.0613 119.012 21.616C118.596 22.16 118.388 22.9013 118.388 23.84C118.388 24.7787 118.596 25.5253 119.012 26.08C119.439 26.624 120.015 26.896 120.74 26.896C121.465 26.896 122.036 26.624 122.452 26.08C122.879 25.5253 123.092 24.7787 123.092 23.84ZM128.514 26.928C129.122 26.928 129.57 26.848 129.858 26.688C130.156 26.528 130.306 26.272 130.306 25.92C130.306 25.5573 130.162 25.2693 129.874 25.056C129.586 24.8427 129.111 24.6027 128.45 24.336C128.13 24.208 127.82 24.08 127.522 23.952C127.234 23.8133 126.983 23.6533 126.77 23.472C126.556 23.2907 126.386 23.072 126.258 22.816C126.13 22.56 126.066 22.2453 126.066 21.872C126.066 21.136 126.338 20.5547 126.882 20.128C127.426 19.6907 128.167 19.472 129.106 19.472C129.34 19.472 129.575 19.488 129.81 19.52C130.044 19.5413 130.263 19.5733 130.466 19.616C130.668 19.648 130.844 19.6853 130.994 19.728C131.154 19.7707 131.276 19.808 131.362 19.84L131.09 21.12C130.93 21.0347 130.679 20.9493 130.338 20.864C129.996 20.768 129.586 20.72 129.106 20.72C128.69 20.72 128.327 20.8053 128.018 20.976C127.708 21.136 127.554 21.392 127.554 21.744C127.554 21.9253 127.586 22.0853 127.65 22.224C127.724 22.3627 127.831 22.4907 127.97 22.608C128.119 22.7147 128.3 22.816 128.514 22.912C128.727 23.008 128.983 23.1093 129.282 23.216C129.676 23.3653 130.028 23.5147 130.338 23.664C130.647 23.8027 130.908 23.968 131.122 24.16C131.346 24.352 131.516 24.5867 131.634 24.864C131.751 25.1307 131.81 25.4613 131.81 25.856C131.81 26.624 131.522 27.2053 130.946 27.6C130.38 27.9947 129.57 28.192 128.514 28.192C127.778 28.192 127.202 28.128 126.786 28C126.37 27.8827 126.087 27.792 125.938 27.728L126.21 26.448C126.38 26.512 126.652 26.608 127.026 26.736C127.399 26.864 127.895 26.928 128.514 26.928ZM133.094 23.856C133.094 23.12 133.201 22.48 133.414 21.936C133.627 21.3813 133.91 20.9227 134.262 20.56C134.614 20.1973 135.019 19.9253 135.478 19.744C135.937 19.5627 136.406 19.472 136.886 19.472C138.006 19.472 138.865 19.824 139.462 20.528C140.059 21.2213 140.358 22.2827 140.358 23.712C140.358 23.776 140.358 23.8613 140.358 23.968C140.358 24.064 140.353 24.1547 140.342 24.24H134.646C134.71 25.104 134.961 25.76 135.398 26.208C135.835 26.656 136.518 26.88 137.446 26.88C137.969 26.88 138.406 26.8373 138.758 26.752C139.121 26.656 139.393 26.5653 139.574 26.48L139.782 27.728C139.601 27.824 139.281 27.9253 138.822 28.032C138.374 28.1387 137.862 28.192 137.286 28.192C136.561 28.192 135.931 28.0853 135.398 27.872C134.875 27.648 134.443 27.344 134.102 26.96C133.761 26.576 133.505 26.1227 133.334 25.6C133.174 25.0667 133.094 24.4853 133.094 23.856ZM138.806 23.04C138.817 22.368 138.646 21.8187 138.294 21.392C137.953 20.9547 137.478 20.736 136.87 20.736C136.529 20.736 136.225 20.8053 135.958 20.944C135.702 21.072 135.483 21.2427 135.302 21.456C135.121 21.6693 134.977 21.9147 134.87 22.192C134.774 22.4693 134.71 22.752 134.678 23.04H138.806ZM153.223 23.84C153.223 24.5013 153.127 25.0987 152.935 25.632C152.743 26.1653 152.471 26.624 152.119 27.008C151.777 27.392 151.367 27.6907 150.887 27.904C150.407 28.1067 149.884 28.208 149.319 28.208C148.753 28.208 148.231 28.1067 147.751 27.904C147.271 27.6907 146.855 27.392 146.503 27.008C146.161 26.624 145.895 26.1653 145.703 25.632C145.511 25.0987 145.415 24.5013 145.415 23.84C145.415 23.1893 145.511 22.5973 145.703 22.064C145.895 21.52 146.161 21.056 146.503 20.672C146.855 20.288 147.271 19.9947 147.751 19.792C148.231 19.5787 148.753 19.472 149.319 19.472C149.884 19.472 150.407 19.5787 150.887 19.792C151.367 19.9947 151.777 20.288 152.119 20.672C152.471 21.056 152.743 21.52 152.935 22.064C153.127 22.5973 153.223 23.1893 153.223 23.84ZM151.671 23.84C151.671 22.9013 151.457 22.16 151.031 21.616C150.615 21.0613 150.044 20.784 149.319 20.784C148.593 20.784 148.017 21.0613 147.591 21.616C147.175 22.16 146.967 22.9013 146.967 23.84C146.967 24.7787 147.175 25.5253 147.591 26.08C148.017 26.624 148.593 26.896 149.319 26.896C150.044 26.896 150.615 26.624 151.031 26.08C151.457 25.5253 151.671 24.7787 151.671 23.84ZM155.156 19.92C155.498 19.8347 155.951 19.744 156.516 19.648C157.082 19.552 157.732 19.504 158.468 19.504C159.13 19.504 159.679 19.6 160.116 19.792C160.554 19.9733 160.9 20.2347 161.156 20.576C161.423 20.9067 161.61 21.3067 161.716 21.776C161.823 22.2453 161.876 22.7627 161.876 23.328V28H160.388V23.648C160.388 23.136 160.351 22.6987 160.276 22.336C160.212 21.9733 160.1 21.68 159.94 21.456C159.78 21.232 159.567 21.072 159.3 20.976C159.034 20.8693 158.703 20.816 158.308 20.816C158.148 20.816 157.983 20.8213 157.812 20.832C157.642 20.8427 157.476 20.8587 157.316 20.88C157.167 20.8907 157.028 20.9067 156.9 20.928C156.783 20.9493 156.698 20.9653 156.644 20.976V28H155.156V19.92ZM163.72 23.856C163.72 23.12 163.826 22.48 164.04 21.936C164.253 21.3813 164.536 20.9227 164.888 20.56C165.24 20.1973 165.645 19.9253 166.104 19.744C166.562 19.5627 167.032 19.472 167.512 19.472C168.632 19.472 169.49 19.824 170.088 20.528C170.685 21.2213 170.984 22.2827 170.984 23.712C170.984 23.776 170.984 23.8613 170.984 23.968C170.984 24.064 170.978 24.1547 170.968 24.24H165.272C165.336 25.104 165.586 25.76 166.024 26.208C166.461 26.656 167.144 26.88 168.072 26.88C168.594 26.88 169.032 26.8373 169.384 26.752C169.746 26.656 170.018 26.5653 170.2 26.48L170.408 27.728C170.226 27.824 169.906 27.9253 169.448 28.032C169 28.1387 168.488 28.192 167.912 28.192C167.186 28.192 166.557 28.0853 166.024 27.872C165.501 27.648 165.069 27.344 164.728 26.96C164.386 26.576 164.13 26.1227 163.96 25.6C163.8 25.0667 163.72 24.4853 163.72 23.856ZM169.432 23.04C169.442 22.368 169.272 21.8187 168.92 21.392C168.578 20.9547 168.104 20.736 167.496 20.736C167.154 20.736 166.85 20.8053 166.584 20.944C166.328 21.072 166.109 21.2427 165.928 21.456C165.746 21.6693 165.602 21.9147 165.496 22.192C165.4 22.4693 165.336 22.752 165.304 23.04H169.432Z" fill="#161E44" fill-opacity="0.5"/>
<path d="M339 19.5L344 24.5L349 19.5H339Z" fill="#182233"/>
<rect x="72.5" y="0.5" width="299" height="43" rx="6.5" stroke="#9CA3AF"/>
</svg>
