<svg width="60" height="34" viewBox="0 0 60 34" fill="none" xmlns="http://www.w3.org/2000/svg">
<path d="M8.03267 3.27273V12H6.62642L2.5142 6.0554H2.44176V12H0.860795V3.27273H2.27557L6.38352 9.22159H6.46023V3.27273H8.03267ZM11.5707 12.1321C11.1559 12.1321 10.7823 12.0582 10.4499 11.9105C10.1204 11.7599 9.85902 11.5384 9.66584 11.2457C9.4755 10.9531 9.38033 10.5923 9.38033 10.1634C9.38033 9.79403 9.44851 9.48864 9.58487 9.24716C9.72124 9.00568 9.90732 8.8125 10.1431 8.66761C10.3789 8.52273 10.6445 8.41335 10.94 8.33949C11.2383 8.26278 11.5465 8.20739 11.8647 8.1733C12.2482 8.13352 12.5593 8.09801 12.7979 8.06676C13.0366 8.03267 13.2099 7.98153 13.3178 7.91335C13.4286 7.84233 13.484 7.73295 13.484 7.58523V7.55966C13.484 7.23864 13.3888 6.99006 13.1985 6.81392C13.0082 6.63778 12.734 6.54972 12.3761 6.54972C11.9982 6.54972 11.6985 6.6321 11.4769 6.79688C11.2582 6.96165 11.1104 7.15625 11.0337 7.38068L9.59339 7.17614C9.70703 6.77841 9.89453 6.44602 10.1559 6.17898C10.4173 5.90909 10.7369 5.70739 11.1147 5.57386C11.4925 5.4375 11.9102 5.36932 12.3675 5.36932C12.6829 5.36932 12.9968 5.40625 13.3093 5.48011C13.6218 5.55398 13.9073 5.67614 14.1658 5.84659C14.4244 6.0142 14.6317 6.2429 14.788 6.53267C14.9471 6.82244 15.0266 7.18466 15.0266 7.61932V12H13.5437V11.1009H13.4925C13.3988 11.2827 13.2667 11.4531 13.0962 11.6122C12.9286 11.7685 12.717 11.8949 12.4613 11.9915C12.2085 12.0852 11.9116 12.1321 11.5707 12.1321ZM11.9712 10.9986C12.2809 10.9986 12.5494 10.9375 12.7766 10.8153C13.0039 10.6903 13.1786 10.5256 13.3008 10.321C13.4258 10.1165 13.4883 9.89347 13.4883 9.65199V8.88068C13.44 8.92045 13.3576 8.95739 13.2411 8.99148C13.1275 9.02557 12.9996 9.0554 12.8576 9.08097C12.7156 9.10653 12.5749 9.12926 12.4357 9.14915C12.2965 9.16903 12.1758 9.18608 12.0735 9.20028C11.8434 9.23153 11.6374 9.28267 11.4556 9.35369C11.2738 9.42472 11.1303 9.52415 11.0252 9.65199C10.9201 9.77699 10.8675 9.93892 10.8675 10.1378C10.8675 10.4219 10.9712 10.6364 11.1786 10.7812C11.386 10.9261 11.6502 10.9986 11.9712 10.9986ZM16.5778 12V5.45455H18.0522V6.56676H18.1289C18.2653 6.19176 18.4911 5.89915 18.8065 5.68892C19.1218 5.47585 19.4982 5.36932 19.9357 5.36932C20.3789 5.36932 20.7525 5.47727 21.0565 5.69318C21.3633 5.90625 21.5792 6.19744 21.7042 6.56676H21.7724C21.9173 6.20312 22.1616 5.91335 22.5053 5.69744C22.8519 5.47869 23.2624 5.36932 23.7369 5.36932C24.3391 5.36932 24.8306 5.55966 25.2113 5.94034C25.592 6.32102 25.7823 6.87642 25.7823 7.60653V12H24.2354V7.84517C24.2354 7.43892 24.1275 7.14205 23.9116 6.95455C23.6957 6.7642 23.4315 6.66903 23.119 6.66903C22.7468 6.66903 22.4556 6.78551 22.2454 7.01847C22.038 7.24858 21.9343 7.5483 21.9343 7.91761V12H20.4215V7.78125C20.4215 7.44318 20.3192 7.1733 20.1147 6.97159C19.913 6.76989 19.6488 6.66903 19.3221 6.66903C19.1005 6.66903 18.8988 6.72585 18.717 6.83949C18.5352 6.95028 18.3903 7.10795 18.2823 7.3125C18.1744 7.5142 18.1204 7.75 18.1204 8.01989V12H16.5778ZM30.245 12.1278C29.5888 12.1278 29.022 11.9915 28.5447 11.7188C28.0703 11.4432 27.7053 11.054 27.4496 10.5511C27.1939 10.0455 27.0661 9.45028 27.0661 8.76562C27.0661 8.09233 27.1939 7.50142 27.4496 6.9929C27.7081 6.48153 28.0689 6.08381 28.532 5.79972C28.995 5.51278 29.5391 5.36932 30.1641 5.36932C30.5675 5.36932 30.9482 5.43466 31.3061 5.56534C31.6669 5.69318 31.9851 5.89205 32.2607 6.16193C32.5391 6.43182 32.7578 6.77557 32.9169 7.19318C33.076 7.60795 33.1555 8.10227 33.1555 8.67614V9.14915H27.7905V8.10938H31.6768C31.674 7.81392 31.6101 7.55114 31.4851 7.32102C31.3601 7.08807 31.1854 6.90483 30.9609 6.77131C30.7393 6.63778 30.4808 6.57102 30.1854 6.57102C29.87 6.57102 29.593 6.64773 29.3544 6.80114C29.1158 6.9517 28.9297 7.15057 28.7962 7.39773C28.6655 7.64205 28.5987 7.91051 28.5959 8.20312V9.1108C28.5959 9.49148 28.6655 9.81818 28.8047 10.0909C28.9439 10.3608 29.1385 10.5682 29.3885 10.7131C29.6385 10.8551 29.9311 10.9261 30.2663 10.9261C30.4908 10.9261 30.6939 10.8949 30.8757 10.8324C31.0575 10.767 31.2152 10.6719 31.3487 10.5469C31.4822 10.4219 31.5831 10.267 31.6513 10.0824L33.0916 10.2443C33.0007 10.625 32.8274 10.9574 32.5717 11.2415C32.3189 11.5227 31.995 11.7415 31.6001 11.8977C31.2053 12.0511 30.7536 12.1278 30.245 12.1278Z" fill="#DB4646"/>
<path d="M4.39773 22.2727H5.45455V28.5114C5.45455 29.0682 5.35227 29.5412 5.14773 29.9304C4.94318 30.3196 4.65483 30.6151 4.28267 30.8168C3.91051 31.0185 3.47159 31.1193 2.96591 31.1193C2.48864 31.1193 2.06392 31.0327 1.69176 30.8594C1.3196 30.6832 1.02699 30.4332 0.81392 30.1094C0.600852 29.7855 0.494318 29.4006 0.494318 28.9545H1.53409C1.53409 29.2017 1.59517 29.4176 1.71733 29.6023C1.84233 29.7841 2.01278 29.9261 2.22869 30.0284C2.4446 30.1307 2.69034 30.1818 2.96591 30.1818C3.26989 30.1818 3.52841 30.1179 3.74148 29.9901C3.95455 29.8622 4.11648 29.6747 4.22727 29.4276C4.34091 29.1776 4.39773 28.8722 4.39773 28.5114V22.2727ZM9.36222 31.1534C8.94744 31.1534 8.57102 31.0753 8.23295 30.919C7.89489 30.7599 7.62642 30.5312 7.42756 30.233C7.22869 29.9318 7.12926 29.5682 7.12926 29.142C7.12926 28.767 7.20313 28.4631 7.35085 28.2301C7.49858 27.9943 7.69602 27.8097 7.94318 27.6761C8.19034 27.5426 8.46307 27.4432 8.76136 27.3778C9.0625 27.3097 9.36506 27.2557 9.66903 27.2159C10.0668 27.1648 10.3892 27.1264 10.6364 27.1009C10.8864 27.0724 11.0682 27.0256 11.1818 26.9602C11.2983 26.8949 11.3565 26.7812 11.3565 26.6193V26.5852C11.3565 26.1648 11.2415 25.8381 11.0114 25.6051C10.7841 25.3722 10.4389 25.2557 9.97585 25.2557C9.49574 25.2557 9.11932 25.3608 8.84659 25.571C8.57386 25.7812 8.3821 26.0057 8.27131 26.2443L7.31676 25.9034C7.48722 25.5057 7.71449 25.196 7.99858 24.9744C8.28551 24.75 8.59801 24.5937 8.93608 24.5057C9.27699 24.4148 9.61222 24.3693 9.94176 24.3693C10.152 24.3693 10.3935 24.3949 10.6662 24.446C10.9418 24.4943 11.2074 24.5952 11.4631 24.7486C11.7216 24.902 11.9361 25.1335 12.1065 25.4432C12.277 25.7528 12.3622 26.1676 12.3622 26.6875V31H11.3565V30.1136H11.3054C11.2372 30.2557 11.1236 30.4077 10.9645 30.5696C10.8054 30.7315 10.5938 30.8693 10.3295 30.983C10.0653 31.0966 9.7429 31.1534 9.36222 31.1534ZM9.51562 30.25C9.91335 30.25 10.2486 30.1719 10.5213 30.0156C10.7969 29.8594 11.0043 29.6577 11.1435 29.4105C11.2855 29.1634 11.3565 28.9034 11.3565 28.6307V27.7102C11.3139 27.7614 11.2202 27.8082 11.0753 27.8509C10.9332 27.8906 10.7685 27.9261 10.581 27.9574C10.3963 27.9858 10.2159 28.0114 10.0398 28.0341C9.86648 28.054 9.72585 28.071 9.6179 28.0852C9.35653 28.1193 9.11222 28.1747 8.88494 28.2514C8.66051 28.3253 8.47869 28.4375 8.33949 28.5881C8.20313 28.7358 8.13494 28.9375 8.13494 29.1932C8.13494 29.5426 8.2642 29.8068 8.52273 29.9858C8.78409 30.1619 9.11506 30.25 9.51562 30.25ZM14.1978 31V24.4545H15.1694V25.4773H15.2546C15.391 25.1278 15.6112 24.8565 15.9151 24.6634C16.2191 24.4673 16.5842 24.3693 17.0103 24.3693C17.4421 24.3693 17.8015 24.4673 18.0884 24.6634C18.3782 24.8565 18.604 25.1278 18.766 25.4773H18.8342C19.0018 25.1392 19.2532 24.8707 19.5884 24.6719C19.9237 24.4702 20.3256 24.3693 20.7944 24.3693C21.3796 24.3693 21.8583 24.5526 22.2305 24.919C22.6026 25.2827 22.7887 25.8494 22.7887 26.6193V31H21.783V26.6193C21.783 26.1364 21.6509 25.7912 21.3867 25.5838C21.1225 25.3764 20.8114 25.2727 20.4535 25.2727C19.9933 25.2727 19.6367 25.4119 19.3839 25.6903C19.131 25.9659 19.0046 26.3153 19.0046 26.7386V31H17.9819V26.517C17.9819 26.1449 17.8612 25.8452 17.6197 25.6179C17.3782 25.3878 17.0671 25.2727 16.6864 25.2727C16.4251 25.2727 16.1808 25.3423 15.9535 25.4815C15.729 25.6207 15.5472 25.8139 15.408 26.0611C15.2717 26.3054 15.2035 26.5881 15.2035 26.9091V31H14.1978ZM24.6275 31V24.4545H25.6332V31H24.6275ZM25.1388 23.3636C24.9428 23.3636 24.7738 23.2969 24.6317 23.1634C24.4925 23.0298 24.4229 22.8693 24.4229 22.6818C24.4229 22.4943 24.4925 22.3338 24.6317 22.2003C24.7738 22.0668 24.9428 22 25.1388 22C25.3349 22 25.5025 22.0668 25.6417 22.2003C25.7837 22.3338 25.8548 22.4943 25.8548 22.6818C25.8548 22.8693 25.7837 23.0298 25.6417 23.1634C25.5025 23.2969 25.3349 23.3636 25.1388 23.3636ZM30.2195 31.1364C29.5888 31.1364 29.0447 30.9972 28.5874 30.7188C28.1328 30.4375 27.782 30.0455 27.5348 29.5426C27.2905 29.0369 27.1683 28.4489 27.1683 27.7784C27.1683 27.108 27.2905 26.517 27.5348 26.0057C27.782 25.4915 28.1257 25.0909 28.5661 24.804C29.0092 24.5142 29.5263 24.3693 30.1172 24.3693C30.4581 24.3693 30.7947 24.4261 31.1271 24.5398C31.4595 24.6534 31.7621 24.8381 32.0348 25.0938C32.3075 25.3466 32.5249 25.6818 32.6868 26.0994C32.8487 26.517 32.9297 27.0312 32.9297 27.642V28.0682H27.8842V27.1989H31.907C31.907 26.8295 31.8331 26.5 31.6854 26.2102C31.5405 25.9205 31.3331 25.6918 31.0632 25.5241C30.7962 25.3565 30.4808 25.2727 30.1172 25.2727C29.7166 25.2727 29.37 25.3722 29.0774 25.571C28.7876 25.767 28.5646 26.0227 28.4084 26.3381C28.2521 26.6534 28.174 26.9915 28.174 27.3523V27.9318C28.174 28.4261 28.2592 28.8452 28.4297 29.1889C28.603 29.5298 28.843 29.7898 29.1499 29.9688C29.4567 30.1449 29.8132 30.233 30.2195 30.233C30.4837 30.233 30.7223 30.196 30.9354 30.1222C31.1513 30.0455 31.3374 29.9318 31.4936 29.7812C31.6499 29.6278 31.7706 29.4375 31.8558 29.2102L32.8274 29.483C32.7251 29.8125 32.5533 30.1023 32.3118 30.3523C32.0703 30.5994 31.772 30.7926 31.4169 30.9318C31.0618 31.0682 30.6626 31.1364 30.2195 31.1364ZM40.6641 31H37.9709V22.2727H40.7834C41.63 22.2727 42.3544 22.4474 42.9567 22.7969C43.5589 23.1435 44.0206 23.642 44.3416 24.2926C44.6626 24.9403 44.8232 25.7159 44.8232 26.6193C44.8232 27.5284 44.6612 28.3111 44.3374 28.9673C44.0135 29.6207 43.5419 30.1236 42.9226 30.4759C42.3033 30.8253 41.5504 31 40.6641 31ZM39.0277 30.0625H40.5959C41.3175 30.0625 41.9155 29.9233 42.3899 29.6449C42.8643 29.3665 43.218 28.9702 43.451 28.456C43.6839 27.9418 43.8004 27.3295 43.8004 26.6193C43.8004 25.9148 43.6854 25.3082 43.4553 24.7997C43.2251 24.2884 42.8814 23.8963 42.424 23.6236C41.9666 23.348 41.397 23.2102 40.7152 23.2102H39.0277V30.0625ZM49.1186 31.1364C48.5277 31.1364 48.0092 30.9957 47.5632 30.7145C47.12 30.4332 46.7734 30.0398 46.5234 29.5341C46.2763 29.0284 46.1527 28.4375 46.1527 27.7614C46.1527 27.0795 46.2763 26.4844 46.5234 25.9759C46.7734 25.4673 47.12 25.0724 47.5632 24.7912C48.0092 24.5099 48.5277 24.3693 49.1186 24.3693C49.7095 24.3693 50.2266 24.5099 50.6697 24.7912C51.1158 25.0724 51.4624 25.4673 51.7095 25.9759C51.9595 26.4844 52.0845 27.0795 52.0845 27.7614C52.0845 28.4375 51.9595 29.0284 51.7095 29.5341C51.4624 30.0398 51.1158 30.4332 50.6697 30.7145C50.2266 30.9957 49.7095 31.1364 49.1186 31.1364ZM49.1186 30.233C49.5675 30.233 49.9368 30.1179 50.2266 29.8878C50.5163 29.6577 50.7308 29.3551 50.87 28.9801C51.0092 28.6051 51.0788 28.1989 51.0788 27.7614C51.0788 27.3239 51.0092 26.9162 50.87 26.5384C50.7308 26.1605 50.5163 25.8551 50.2266 25.6222C49.9368 25.3892 49.5675 25.2727 49.1186 25.2727C48.6697 25.2727 48.3004 25.3892 48.0107 25.6222C47.7209 25.8551 47.5064 26.1605 47.3672 26.5384C47.228 26.9162 47.1584 27.3239 47.1584 27.7614C47.1584 28.1989 47.228 28.6051 47.3672 28.9801C47.5064 29.3551 47.7209 29.6577 48.0107 29.8878C48.3004 30.1179 48.6697 30.233 49.1186 30.233ZM56.364 31.1364C55.7333 31.1364 55.1893 30.9972 54.7319 30.7188C54.2773 30.4375 53.9265 30.0455 53.6793 29.5426C53.435 29.0369 53.3129 28.4489 53.3129 27.7784C53.3129 27.108 53.435 26.517 53.6793 26.0057C53.9265 25.4915 54.2702 25.0909 54.7106 24.804C55.1538 24.5142 55.6708 24.3693 56.2617 24.3693C56.6026 24.3693 56.9393 24.4261 57.2717 24.5398C57.604 24.6534 57.9066 24.8381 58.1793 25.0938C58.4521 25.3466 58.6694 25.6818 58.8313 26.0994C58.9933 26.517 59.0742 27.0312 59.0742 27.642V28.0682H54.0288V27.1989H58.0515C58.0515 26.8295 57.9776 26.5 57.8299 26.2102C57.685 25.9205 57.4776 25.6918 57.2077 25.5241C56.9407 25.3565 56.6254 25.2727 56.2617 25.2727C55.8612 25.2727 55.5146 25.3722 55.2219 25.571C54.9322 25.767 54.7092 26.0227 54.5529 26.3381C54.3967 26.6534 54.3185 26.9915 54.3185 27.3523V27.9318C54.3185 28.4261 54.4038 28.8452 54.5742 29.1889C54.7475 29.5298 54.9876 29.7898 55.2944 29.9688C55.6012 30.1449 55.9577 30.233 56.364 30.233C56.6282 30.233 56.8668 30.196 57.0799 30.1222C57.2958 30.0455 57.4819 29.9318 57.6381 29.7812C57.7944 29.6278 57.9151 29.4375 58.0004 29.2102L58.9719 29.483C58.8697 29.8125 58.6978 30.1023 58.4563 30.3523C58.2148 30.5994 57.9165 30.7926 57.5614 30.9318C57.2063 31.0682 56.8072 31.1364 56.364 31.1364Z" fill="black"/>
</svg>
